<?xml version="1.0" encoding="utf-8"?>
<!-- Generator: Adobe Illustrator 19.2.0, SVG Export Plug-In . SVG Version: 6.00 Build 0)  -->
<svg version="1.1" id="Layer_1" xmlns="http://www.w3.org/2000/svg" xmlns:xlink="http://www.w3.org/1999/xlink" x="0px" y="0px"
	 viewBox="0 0 64 64" style="enable-background:new 0 0 64 64;" xml:space="preserve">
<path d="M56,31.1l-7.1-3.8l-15.6-7.6v-4c0-1,1.1-1.5,1.1-1.5l0,0c2.2-1,3.7-3.2,3.7-5.7c0-3.5-2.8-6.3-6.3-6.3c-2.8,0-5.1,1.8-6,4.3
	c0,0-0.3,1.1,0.5,1.1h1.2c0.2,0,0.6-0.1,0.8-0.7c0,0,0,0,0,0c0.5-1.4,1.8-2.3,3.4-2.3c2,0,3.6,1.6,3.6,3.7c0,1.6-1,2.9-2.4,3.4l0,0
	c0,0-0.1,0-0.2,0.1c0,0-0.1,0-0.1,0c-0.7,0.3-2.3,1-2.3,2.8V15v4.7L16,26.8l-8.4,4.5c-0.4,0.2-1,0.8-1,2v0.9c0,0.8,0.6,1.4,1.4,1.4
	h8.6v24.7c0,0.8,0.6,1.4,1.4,1.4h28c0.8,0,1.4-0.6,1.4-1.4V35.7H56c0.8,0,1.4-0.6,1.4-1.4v-0.9C57.4,32,56,31.2,56,31.1z M44.6,53.1
	H19.1v-3.6h25.5V53.1z M51.6,32.8h-1.3h-2.9v-0.5c0-0.8-0.6-1.4-1.4-1.4H18c-0.8,0-1.4,0.6-1.4,1.4v0.5h-3.7h-0.6h-0.1
	c-1,0,0-0.7,0-0.7c0.5-0.3,1.1-0.6,1.7-0.9l17.9-9l-0.1,0.1v0l0,0l17.8,8.9l0.3,0.2l1,0.5c0,0,0,0,0,0l0.6,0.3
	C51.6,32.3,52.5,32.8,51.6,32.8z"/>
</svg>
