<?xml version="1.0" ?><!DOCTYPE svg  PUBLIC '-//W3C//DTD SVG 1.1//EN'  'http://www.w3.org/Graphics/SVG/1.1/DTD/svg11.dtd'><svg enable-background="new 0 0 64 64" height="64px" id="Layer_1" version="1.1" viewBox="0 0 64 64" width="64px" xml:space="preserve" xmlns="http://www.w3.org/2000/svg" xmlns:xlink="http://www.w3.org/1999/xlink"><g><path d="M55.52,10.003H27.624c-1.54,0-2.789,1.249-2.789,2.789v5.995h12.268c2.2,0,4,1.8,4,4v20.69h6.049   c0.771,0,1.163-0.58,0.877-1.295l-1.993-4.982h10.182c1.155,0,2.092-0.936,2.092-2.093V12.793   C58.31,11.252,57.061,10.003,55.52,10.003z"/><path d="M36.376,20.522H8.479c-1.54,0-2.789,1.249-2.789,2.789v22.316c0,1.156,0.936,2.093,2.092,2.093h10.182l-1.992,4.981   c-0.285,0.715,0.106,1.295,0.877,1.295h11.158c0.771,0,1.163-0.58,0.877-1.295l-1.993-4.981h10.182   c1.155,0,2.092-0.937,2.092-2.093V23.311C39.165,21.771,37.916,20.522,36.376,20.522z M22.428,45.926   c-0.818,0-1.481-0.663-1.481-1.481c0-0.818,0.663-1.481,1.481-1.481c0.818,0,1.482,0.663,1.482,1.481   C23.91,45.263,23.246,45.926,22.428,45.926z M35.165,40.747H9.69V24.522h25.475V40.747z"/></g></svg>