<?xml version="1.0" encoding="utf-8"?>
<!-- Generator: Adobe Illustrator 19.2.0, SVG Export Plug-In . SVG Version: 6.00 Build 0)  -->
<svg version="1.1" id="Layer_1" xmlns="http://www.w3.org/2000/svg" xmlns:xlink="http://www.w3.org/1999/xlink" x="0px" y="0px"
	 viewBox="0 0 64 64" style="enable-background:new 0 0 64 64;" xml:space="preserve">
<style type="text/css">
	.st0{fill:#FFFFFF;}
</style>
<g>
	<path class="st0" d="M55.5,10H27.6c-1.5,0-2.8,1.2-2.8,2.8v6h12.3c2.2,0,4,1.8,4,4v20.7h6c0.8,0,1.2-0.6,0.9-1.3l-2-5h10.2
		c1.2,0,2.1-0.9,2.1-2.1V12.8C58.3,11.3,57.1,10,55.5,10z"/>
	<path class="st0" d="M36.4,20.5H8.5c-1.5,0-2.8,1.2-2.8,2.8v22.3c0,1.2,0.9,2.1,2.1,2.1H18l-2,5c-0.3,0.7,0.1,1.3,0.9,1.3H28
		c0.8,0,1.2-0.6,0.9-1.3l-2-5h10.2c1.2,0,2.1-0.9,2.1-2.1V23.3C39.2,21.8,37.9,20.5,36.4,20.5z M22.4,45.9c-0.8,0-1.5-0.7-1.5-1.5
		s0.7-1.5,1.5-1.5c0.8,0,1.5,0.7,1.5,1.5C23.9,45.3,23.2,45.9,22.4,45.9z M35.2,40.7H9.7V24.5h25.5V40.7z"/>
</g>
</svg>
